<?xml version="1.0" standalone="no"?>
<!DOCTYPE svg PUBLIC "-//W3C//DTD SVG 20010904//EN"
 "http://www.w3.org/TR/2001/REC-SVG-20010904/DTD/svg10.dtd">
<svg version="1.0" xmlns="http://www.w3.org/2000/svg"
 width="132.000000pt" height="132.000000pt" viewBox="0 0 132.000000 132.000000"
 preserveAspectRatio="xMidYMid meet">
<metadata>
Created by potrace 1.14, written by Peter Selinger 2001-2017
</metadata>
<g transform="translate(0.000000,132.000000) scale(0.100000,-0.100000)"
fill="#000000" stroke="none">
<path d="M379 992 c0 -4 -1 -80 -1 -169 l0 -163 -52 -1 c-28 0 -90 -1 -138 -1
l-88 0 0 -172 0 -173 513 1 512 1 0 340 0 340 -372 2 c-205 1 -373 -1 -374 -5z"/>
<path d="M1185 990 c3 -5 8 -10 11 -10 2 0 4 5 4 10 0 6 -5 10 -11 10 -5 0 -7
-4 -4 -10z"/>
<path d="M1164 972 c1 -7 5 -12 10 -12 5 1 12 -3 16 -10 5 -8 11 -6 20 5 12
14 10 15 -13 11 -15 -2 -28 1 -30 7 -2 8 -4 7 -3 -1z"/>
</g>
</svg>
